<mxfile host="Electron" modified="2024-10-27T17:41:04.904Z" agent="Mozilla/5.0 (Windows NT 10.0; Win64; x64) AppleWebKit/537.36 (KHTML, like Gecko) draw.io/23.1.5 Chrome/120.0.6099.109 Electron/28.1.0 Safari/537.36" etag="In_mlC3YsZTyOBSdjfze" version="23.1.5" type="device">
  <diagram name="PÃ¡gina-1" id="hzSSEd-4Imz5Q4LZ48o8">
    <mxGraphModel dx="819" dy="478" grid="1" gridSize="10" guides="1" tooltips="1" connect="1" arrows="1" fold="1" page="1" pageScale="1" pageWidth="827" pageHeight="1169" math="0" shadow="0">
      <root>
        <mxCell id="0" />
        <mxCell id="1" parent="0" />
        <mxCell id="ReyiuxIJ5cIyqLZsk5rR-8" value="" style="edgeStyle=orthogonalEdgeStyle;rounded=0;orthogonalLoop=1;jettySize=auto;html=1;" edge="1" parent="1" source="ReyiuxIJ5cIyqLZsk5rR-1" target="ReyiuxIJ5cIyqLZsk5rR-2">
          <mxGeometry relative="1" as="geometry" />
        </mxCell>
        <mxCell id="ReyiuxIJ5cIyqLZsk5rR-32" style="edgeStyle=orthogonalEdgeStyle;rounded=0;orthogonalLoop=1;jettySize=auto;html=1;exitX=0.5;exitY=1;exitDx=0;exitDy=0;entryX=0.5;entryY=0;entryDx=0;entryDy=0;" edge="1" parent="1" source="ReyiuxIJ5cIyqLZsk5rR-1" target="ReyiuxIJ5cIyqLZsk5rR-3">
          <mxGeometry relative="1" as="geometry" />
        </mxCell>
        <mxCell id="ReyiuxIJ5cIyqLZsk5rR-1" value="Fetch initial PC" style="rounded=0;whiteSpace=wrap;html=1;" vertex="1" parent="1">
          <mxGeometry x="80" y="40" width="120" height="60" as="geometry" />
        </mxCell>
        <mxCell id="ReyiuxIJ5cIyqLZsk5rR-2" value="Read word at&lt;br&gt;0xFFFC" style="rounded=0;whiteSpace=wrap;html=1;" vertex="1" parent="1">
          <mxGeometry x="280" y="40" width="120" height="60" as="geometry" />
        </mxCell>
        <mxCell id="ReyiuxIJ5cIyqLZsk5rR-9" value="" style="edgeStyle=orthogonalEdgeStyle;rounded=0;orthogonalLoop=1;jettySize=auto;html=1;" edge="1" parent="1" source="ReyiuxIJ5cIyqLZsk5rR-3" target="ReyiuxIJ5cIyqLZsk5rR-4">
          <mxGeometry relative="1" as="geometry" />
        </mxCell>
        <mxCell id="ReyiuxIJ5cIyqLZsk5rR-3" value="Process instruction at PC" style="rounded=0;whiteSpace=wrap;html=1;" vertex="1" parent="1">
          <mxGeometry x="80" y="160" width="120" height="60" as="geometry" />
        </mxCell>
        <mxCell id="ReyiuxIJ5cIyqLZsk5rR-11" style="edgeStyle=orthogonalEdgeStyle;rounded=0;orthogonalLoop=1;jettySize=auto;html=1;exitX=0.5;exitY=1;exitDx=0;exitDy=0;entryX=0.5;entryY=0;entryDx=0;entryDy=0;" edge="1" parent="1" source="ReyiuxIJ5cIyqLZsk5rR-4" target="ReyiuxIJ5cIyqLZsk5rR-5">
          <mxGeometry relative="1" as="geometry" />
        </mxCell>
        <mxCell id="ReyiuxIJ5cIyqLZsk5rR-4" value="Read OP code&lt;br&gt;(1st byte)" style="rounded=0;whiteSpace=wrap;html=1;" vertex="1" parent="1">
          <mxGeometry x="280" y="170" width="120" height="40" as="geometry" />
        </mxCell>
        <mxCell id="ReyiuxIJ5cIyqLZsk5rR-13" style="edgeStyle=orthogonalEdgeStyle;rounded=0;orthogonalLoop=1;jettySize=auto;html=1;exitX=0.5;exitY=1;exitDx=0;exitDy=0;entryX=0.5;entryY=0;entryDx=0;entryDy=0;" edge="1" parent="1" source="ReyiuxIJ5cIyqLZsk5rR-5" target="ReyiuxIJ5cIyqLZsk5rR-6">
          <mxGeometry relative="1" as="geometry" />
        </mxCell>
        <mxCell id="ReyiuxIJ5cIyqLZsk5rR-5" value="Decode instruction" style="rounded=0;whiteSpace=wrap;html=1;" vertex="1" parent="1">
          <mxGeometry x="280" y="230" width="120" height="30" as="geometry" />
        </mxCell>
        <mxCell id="ReyiuxIJ5cIyqLZsk5rR-14" style="edgeStyle=orthogonalEdgeStyle;rounded=0;orthogonalLoop=1;jettySize=auto;html=1;exitX=0.5;exitY=1;exitDx=0;exitDy=0;entryX=0.5;entryY=0;entryDx=0;entryDy=0;" edge="1" parent="1" source="ReyiuxIJ5cIyqLZsk5rR-6" target="ReyiuxIJ5cIyqLZsk5rR-7">
          <mxGeometry relative="1" as="geometry" />
        </mxCell>
        <mxCell id="ReyiuxIJ5cIyqLZsk5rR-6" value="Get arguments&lt;br&gt;(2nd and/or 3rd byte)" style="rounded=0;whiteSpace=wrap;html=1;" vertex="1" parent="1">
          <mxGeometry x="280" y="280" width="120" height="60" as="geometry" />
        </mxCell>
        <mxCell id="ReyiuxIJ5cIyqLZsk5rR-24" style="edgeStyle=orthogonalEdgeStyle;rounded=0;orthogonalLoop=1;jettySize=auto;html=1;exitX=1;exitY=0.5;exitDx=0;exitDy=0;entryX=0;entryY=0.5;entryDx=0;entryDy=0;fillColor=#f8cecc;strokeColor=#b85450;" edge="1" parent="1" source="ReyiuxIJ5cIyqLZsk5rR-7" target="ReyiuxIJ5cIyqLZsk5rR-16">
          <mxGeometry relative="1" as="geometry" />
        </mxCell>
        <mxCell id="ReyiuxIJ5cIyqLZsk5rR-35" style="edgeStyle=orthogonalEdgeStyle;rounded=0;orthogonalLoop=1;jettySize=auto;html=1;exitX=1;exitY=0.5;exitDx=0;exitDy=0;entryX=0;entryY=0.5;entryDx=0;entryDy=0;" edge="1" parent="1" source="ReyiuxIJ5cIyqLZsk5rR-7" target="ReyiuxIJ5cIyqLZsk5rR-18">
          <mxGeometry relative="1" as="geometry" />
        </mxCell>
        <mxCell id="ReyiuxIJ5cIyqLZsk5rR-7" value="Process instruction" style="rounded=0;whiteSpace=wrap;html=1;" vertex="1" parent="1">
          <mxGeometry x="280" y="360" width="120" height="30" as="geometry" />
        </mxCell>
        <mxCell id="ReyiuxIJ5cIyqLZsk5rR-25" style="edgeStyle=orthogonalEdgeStyle;rounded=0;orthogonalLoop=1;jettySize=auto;html=1;exitX=0.5;exitY=1;exitDx=0;exitDy=0;entryX=0.5;entryY=0;entryDx=0;entryDy=0;" edge="1" parent="1" source="ReyiuxIJ5cIyqLZsk5rR-16" target="ReyiuxIJ5cIyqLZsk5rR-17">
          <mxGeometry relative="1" as="geometry" />
        </mxCell>
        <mxCell id="ReyiuxIJ5cIyqLZsk5rR-16" value="Calculate DIR" style="rounded=0;whiteSpace=wrap;html=1;" vertex="1" parent="1">
          <mxGeometry x="480" y="160" width="120" height="30" as="geometry" />
        </mxCell>
        <mxCell id="ReyiuxIJ5cIyqLZsk5rR-26" style="edgeStyle=orthogonalEdgeStyle;rounded=0;orthogonalLoop=1;jettySize=auto;html=1;exitX=0.5;exitY=1;exitDx=0;exitDy=0;entryX=0.5;entryY=0;entryDx=0;entryDy=0;" edge="1" parent="1" source="ReyiuxIJ5cIyqLZsk5rR-17" target="ReyiuxIJ5cIyqLZsk5rR-18">
          <mxGeometry relative="1" as="geometry" />
        </mxCell>
        <mxCell id="ReyiuxIJ5cIyqLZsk5rR-17" value="Get byte at DIR" style="rounded=0;whiteSpace=wrap;html=1;" vertex="1" parent="1">
          <mxGeometry x="480" y="210" width="120" height="30" as="geometry" />
        </mxCell>
        <mxCell id="ReyiuxIJ5cIyqLZsk5rR-27" style="edgeStyle=orthogonalEdgeStyle;rounded=0;orthogonalLoop=1;jettySize=auto;html=1;exitX=0.5;exitY=1;exitDx=0;exitDy=0;entryX=0.5;entryY=0;entryDx=0;entryDy=0;" edge="1" parent="1" source="ReyiuxIJ5cIyqLZsk5rR-18" target="ReyiuxIJ5cIyqLZsk5rR-19">
          <mxGeometry relative="1" as="geometry" />
        </mxCell>
        <mxCell id="ReyiuxIJ5cIyqLZsk5rR-18" value="Operate" style="rounded=0;whiteSpace=wrap;html=1;" vertex="1" parent="1">
          <mxGeometry x="480" y="260" width="120" height="30" as="geometry" />
        </mxCell>
        <mxCell id="ReyiuxIJ5cIyqLZsk5rR-28" style="edgeStyle=orthogonalEdgeStyle;rounded=0;orthogonalLoop=1;jettySize=auto;html=1;exitX=0.5;exitY=1;exitDx=0;exitDy=0;entryX=0.5;entryY=0;entryDx=0;entryDy=0;" edge="1" parent="1" source="ReyiuxIJ5cIyqLZsk5rR-19" target="ReyiuxIJ5cIyqLZsk5rR-20">
          <mxGeometry relative="1" as="geometry" />
        </mxCell>
        <mxCell id="ReyiuxIJ5cIyqLZsk5rR-36" style="edgeStyle=orthogonalEdgeStyle;rounded=0;orthogonalLoop=1;jettySize=auto;html=1;exitX=0.5;exitY=1;exitDx=0;exitDy=0;fillColor=#dae8fc;strokeColor=#6c8ebf;" edge="1" parent="1" source="ReyiuxIJ5cIyqLZsk5rR-19">
          <mxGeometry relative="1" as="geometry">
            <mxPoint x="470" y="470" as="targetPoint" />
            <Array as="points">
              <mxPoint x="540" y="350" />
              <mxPoint x="470" y="350" />
            </Array>
          </mxGeometry>
        </mxCell>
        <mxCell id="ReyiuxIJ5cIyqLZsk5rR-19" value="Modify FLAGS" style="rounded=0;whiteSpace=wrap;html=1;" vertex="1" parent="1">
          <mxGeometry x="480" y="310" width="120" height="30" as="geometry" />
        </mxCell>
        <mxCell id="ReyiuxIJ5cIyqLZsk5rR-29" style="edgeStyle=orthogonalEdgeStyle;rounded=0;orthogonalLoop=1;jettySize=auto;html=1;exitX=0.5;exitY=1;exitDx=0;exitDy=0;entryX=0.5;entryY=0;entryDx=0;entryDy=0;" edge="1" parent="1" source="ReyiuxIJ5cIyqLZsk5rR-20" target="ReyiuxIJ5cIyqLZsk5rR-23">
          <mxGeometry relative="1" as="geometry" />
        </mxCell>
        <mxCell id="ReyiuxIJ5cIyqLZsk5rR-30" style="edgeStyle=orthogonalEdgeStyle;rounded=0;orthogonalLoop=1;jettySize=auto;html=1;exitX=1;exitY=0.5;exitDx=0;exitDy=0;entryX=0;entryY=0.5;entryDx=0;entryDy=0;" edge="1" parent="1" source="ReyiuxIJ5cIyqLZsk5rR-20" target="ReyiuxIJ5cIyqLZsk5rR-21">
          <mxGeometry relative="1" as="geometry" />
        </mxCell>
        <mxCell id="ReyiuxIJ5cIyqLZsk5rR-31" style="edgeStyle=orthogonalEdgeStyle;rounded=0;orthogonalLoop=1;jettySize=auto;html=1;exitX=1;exitY=0.5;exitDx=0;exitDy=0;entryX=0;entryY=0.5;entryDx=0;entryDy=0;" edge="1" parent="1" source="ReyiuxIJ5cIyqLZsk5rR-20" target="ReyiuxIJ5cIyqLZsk5rR-22">
          <mxGeometry relative="1" as="geometry" />
        </mxCell>
        <mxCell id="ReyiuxIJ5cIyqLZsk5rR-20" value="Save result to:" style="rounded=0;whiteSpace=wrap;html=1;" vertex="1" parent="1">
          <mxGeometry x="480" y="370" width="120" height="30" as="geometry" />
        </mxCell>
        <mxCell id="ReyiuxIJ5cIyqLZsk5rR-21" value="Register" style="rounded=0;whiteSpace=wrap;html=1;" vertex="1" parent="1">
          <mxGeometry x="640" y="340" width="120" height="30" as="geometry" />
        </mxCell>
        <mxCell id="ReyiuxIJ5cIyqLZsk5rR-22" value="DIR" style="rounded=0;whiteSpace=wrap;html=1;" vertex="1" parent="1">
          <mxGeometry x="640" y="390" width="120" height="30" as="geometry" />
        </mxCell>
        <mxCell id="ReyiuxIJ5cIyqLZsk5rR-34" style="edgeStyle=orthogonalEdgeStyle;rounded=0;orthogonalLoop=1;jettySize=auto;html=1;exitX=0.5;exitY=1;exitDx=0;exitDy=0;entryX=0;entryY=0.5;entryDx=0;entryDy=0;" edge="1" parent="1" source="ReyiuxIJ5cIyqLZsk5rR-23" target="ReyiuxIJ5cIyqLZsk5rR-3">
          <mxGeometry relative="1" as="geometry" />
        </mxCell>
        <mxCell id="ReyiuxIJ5cIyqLZsk5rR-23" value="Increment PC" style="rounded=0;whiteSpace=wrap;html=1;" vertex="1" parent="1">
          <mxGeometry x="480" y="420" width="120" height="30" as="geometry" />
        </mxCell>
      </root>
    </mxGraphModel>
  </diagram>
</mxfile>
